<svg width="154" height="23" viewBox="0 0 154 23" fill="none" xmlns="http://www.w3.org/2000/svg">
<path fill-rule="evenodd" clip-rule="evenodd" d="M20.1875 7.20831L23.1819 13.6059H17.3801L20.1875 7.20831ZM2.62016 4.68589H0V19.0894H10.4551V16.7865H2.62016V4.68589ZM80.9666 6.98902V19.0894H83.5868V6.98902H88.7522V4.68589H75.95V6.98902H80.9666ZM53.0416 16.8232C50.1218 16.8232 47.9137 14.6661 47.9137 11.8874C47.9137 9.1093 50.1218 6.95249 53.0416 6.95249C55.9614 6.95249 58.1699 9.1093 58.1699 11.8874C58.1699 14.6661 55.9614 16.8232 53.0416 16.8232ZM37.3575 6.95243C39.566 6.95243 40.8011 8.1219 41.5125 8.74373L43.3467 6.98901C42.7479 6.33086 40.9887 4.39326 37.3201 4.39326C33.0902 4.39326 29.347 7.17139 29.347 11.8874C29.347 16.6036 33.0528 19.382 37.2826 19.382C40.5395 19.382 42.7479 17.6636 43.4588 17.0421L41.9989 15.0315C40.8386 15.9823 39.0044 16.8231 37.3201 16.8231C34.4006 16.8231 32.1918 14.666 32.1918 11.8874C32.1918 9.10925 34.4006 6.95243 37.3575 6.95243ZM63.036 17.6636C63.635 18.1391 65.4317 19.382 68.5763 19.382C71.7577 19.382 74.3404 17.7005 74.3404 15.0681C74.3404 9.58451 66.218 11.3392 66.218 8.34163C66.218 7.50085 66.9291 6.80612 68.8007 6.80612C71.0466 6.80612 72.5062 7.79321 73.0675 8.23189L74.1537 6.1114C73.4795 5.49008 71.4209 4.39326 68.8007 4.39326C64.8702 4.39326 63.2608 6.55033 63.2608 8.67057C63.2608 13.6424 71.3834 12.2168 71.3834 15.1781C71.3834 16.421 70.1108 16.9689 68.6509 16.9689C66.4425 16.9689 64.6829 16.0189 63.9344 15.4702L63.036 17.6636ZM102.265 4.68589H91.0729V19.0894H102.49V16.7865H93.6934V13.0211H101.18V10.7177H93.6934V6.98902H102.265V4.68589ZM25.7647 19.0894H28.8526L21.7596 4.68589H18.8023L12.2519 19.0894H14.9844L16.4069 15.8358H24.2302L25.7647 19.0894ZM53.0415 19.382C57.2714 19.382 61.0146 16.6036 61.0146 11.8874C61.0146 7.17139 57.2714 4.39326 53.0415 4.39326C48.8119 4.39326 45.0684 7.17139 45.0684 11.8874C45.0684 16.6036 48.8119 19.382 53.0415 19.382Z" fill="black"/>
<path fill-rule="evenodd" clip-rule="evenodd" d="M136.439 11.2307C136.378 11.4765 136.319 11.729 136.264 11.9864C136.25 12.0486 136.188 12.0778 136.127 12.0479C135.842 11.9122 135.539 11.7685 135.216 11.6184C135.146 11.5881 135.145 11.5315 135.215 11.4997C135.568 11.3346 135.942 11.2155 136.329 11.1449C136.406 11.1307 136.455 11.1708 136.439 11.2307ZM134.712 10.6447C134.65 10.8913 134.59 11.1435 134.537 11.4009C134.522 11.4629 134.462 11.4924 134.401 11.4629C134.114 11.3262 133.811 11.1815 133.489 11.0334C133.42 11.0011 133.418 10.946 133.489 10.9137C133.841 10.7489 134.214 10.6282 134.602 10.5594C134.678 10.545 134.729 10.5845 134.712 10.6447ZM134.17 13.0004C134.158 13.0635 134.098 13.0893 134.035 13.0627C133.75 12.9265 133.448 12.782 133.125 12.6329C133.055 12.6011 133.054 12.5461 133.124 12.5141C133.476 12.3476 133.851 12.2277 134.237 12.1579C134.314 12.1455 134.365 12.1853 134.349 12.2443C134.285 12.4895 134.228 12.7435 134.17 13.0004ZM132.899 10.3564C132.837 10.6009 132.777 10.8537 132.722 11.1111C132.709 11.1746 132.649 11.2036 132.587 11.1746C132.302 11.0364 131.999 10.8932 131.677 10.7446C131.606 10.7128 131.604 10.6578 131.674 10.625C132.027 10.459 132.403 10.3394 132.789 10.2691C132.865 10.257 132.916 10.2973 132.899 10.3564ZM132.535 11.9107C132.473 12.1549 132.414 12.4066 132.358 12.6643C132.344 12.7283 132.284 12.7565 132.223 12.7283C131.938 12.5916 131.634 12.4464 131.311 12.2978C131.242 12.266 131.241 12.2099 131.31 12.1774C131.663 12.013 132.037 11.8936 132.425 11.8233C132.501 11.8089 132.55 11.8497 132.535 11.9107ZM132.175 13.4989C132.111 13.7444 132.053 13.9961 131.997 14.2535C131.984 14.3171 131.924 14.345 131.862 14.3171C131.577 14.1812 131.274 14.0354 130.951 13.8866C130.882 13.8548 130.88 13.799 130.95 13.7669C131.302 13.602 131.677 13.4819 132.063 13.4121C132.14 13.3976 132.191 13.4379 132.175 13.4989ZM130.841 11.0727C130.829 11.136 130.769 11.1642 130.708 11.136C130.42 10.9985 130.118 10.8551 129.795 10.7062C129.725 10.6742 129.723 10.6204 129.794 10.5873C130.147 10.4212 130.521 10.3005 130.909 10.2318C130.985 10.2188 131.035 10.2571 131.02 10.3191C130.956 10.5636 130.898 10.815 130.841 11.0727ZM130.658 11.8597C130.596 12.1065 130.536 12.3559 130.482 12.6154C130.465 12.6769 130.407 12.7061 130.345 12.6769C130.06 12.5407 129.756 12.3965 129.434 12.2484C129.364 12.2158 129.364 12.1611 129.432 12.1288C129.785 11.9621 130.16 11.8429 130.547 11.7729C130.625 11.76 130.674 11.7995 130.658 11.8597ZM130.306 13.4284C130.243 13.6747 130.185 13.9246 130.13 14.1835C130.117 14.245 130.056 14.2742 129.995 14.245C129.708 14.1088 129.406 13.9644 129.083 13.816C129.014 13.7837 129.012 13.7292 129.081 13.6979C129.434 13.5313 129.807 13.4108 130.196 13.3411C130.272 13.3284 130.322 13.3682 130.306 13.4284ZM128.827 11.286C128.539 11.1511 128.236 11.0051 127.914 10.8578C127.846 10.8255 127.844 10.7699 127.913 10.7371C128.267 10.5725 128.641 10.4528 129.029 10.383C129.104 10.3696 129.154 10.4089 129.139 10.4696C129.076 10.7149 129.017 10.9668 128.962 11.2247C128.947 11.286 128.887 11.3154 128.827 11.286ZM128.773 12.0383C128.71 12.2823 128.651 12.534 128.596 12.7939C128.582 12.8575 128.521 12.8846 128.461 12.8554C128.174 12.7208 127.873 12.5751 127.55 12.427C127.479 12.3936 127.477 12.3401 127.547 12.3076C127.901 12.1406 128.275 12.0212 128.663 11.9522C128.739 11.9401 128.789 11.9802 128.773 12.0383ZM128.42 13.6185C128.357 13.8638 128.299 14.1142 128.243 14.3737C128.229 14.4372 128.17 14.4646 128.109 14.4362C127.822 14.3 127.521 14.1555 127.196 14.0062C127.127 13.9736 127.125 13.9199 127.193 13.8876C127.548 13.7206 127.922 13.6004 128.309 13.5322C128.386 13.5188 128.436 13.5596 128.42 13.6185ZM126.911 11.5991C126.624 11.4624 126.321 11.3182 126 11.1693C125.93 11.1385 125.927 11.0851 125.997 11.0502C126.351 10.884 126.724 10.7654 127.112 10.6956C127.189 10.6829 127.238 10.7214 127.223 10.783C127.161 11.0259 127.1 11.2791 127.046 11.5363C127.033 11.6006 126.971 11.628 126.911 11.5991ZM126.658 13.191C126.645 13.2533 126.586 13.282 126.524 13.2533C126.238 13.1161 125.934 12.9716 125.613 12.8227C125.545 12.7917 125.542 12.7375 125.612 12.7049C125.964 12.538 126.339 12.418 126.725 12.3498C126.801 12.3372 126.853 12.3751 126.837 12.4364C126.774 12.6814 126.714 12.9344 126.658 13.191ZM126.295 14.7719C126.282 14.8347 126.222 14.8626 126.16 14.8347C125.874 14.6977 125.572 14.5538 125.249 14.4047C125.18 14.3737 125.177 14.3181 125.247 14.2848C125.6 14.1191 125.975 13.9997 126.362 13.9305C126.438 13.9181 126.488 13.9568 126.474 14.0173C126.41 14.2618 126.352 14.5145 126.295 14.7719ZM125.153 11.9598C125.139 12.0231 125.08 12.052 125.019 12.0226C124.731 11.8879 124.43 11.7445 124.106 11.5925C124.038 11.5633 124.034 11.5062 124.105 11.4744C124.458 11.3088 124.832 11.1915 125.22 11.1191C125.297 11.1057 125.346 11.1462 125.331 11.207C125.268 11.4514 125.208 11.7032 125.153 11.9598ZM124.929 12.9296C124.867 13.1748 124.807 13.4265 124.752 13.6842C124.738 13.7457 124.677 13.7759 124.616 13.7457C124.331 13.6105 124.028 13.4648 123.705 13.3167C123.636 13.2854 123.635 13.2304 123.704 13.1976C124.055 13.0327 124.431 12.9136 124.818 12.8422C124.895 12.8293 124.946 12.8696 124.929 12.9296ZM124.563 14.5616C124.501 14.8063 124.442 15.0575 124.386 15.3146C124.372 15.3772 124.313 15.4064 124.251 15.3772C123.966 15.2415 123.664 15.097 123.34 14.9469C123.27 14.9164 123.269 14.8616 123.338 14.8291C123.691 14.6634 124.065 14.5435 124.454 14.4742C124.529 14.4598 124.581 14.5006 124.563 14.5616ZM123.128 12.534C122.842 12.3983 122.539 12.2533 122.216 12.1066C122.147 12.0748 122.145 12.0182 122.214 11.9864C122.567 11.8218 122.943 11.7011 123.329 11.63C123.407 11.6179 123.456 11.6561 123.441 11.7174C123.376 11.9631 123.319 12.2146 123.263 12.472C123.25 12.5355 123.19 12.5642 123.128 12.534ZM123.052 13.3799C122.988 13.6264 122.929 13.8781 122.874 14.136C122.86 14.1975 122.801 14.2275 122.739 14.1975C122.453 14.0619 122.151 13.9174 121.829 13.7683C121.76 13.7375 121.757 13.6822 121.826 13.6481C122.179 13.4838 122.553 13.3633 122.94 13.2933C123.018 13.2799 123.069 13.3215 123.052 13.3799ZM121.404 12.6022C121.39 12.6665 121.33 12.6932 121.269 12.6665C120.982 12.5278 120.68 12.3851 120.357 12.2363C120.287 12.2045 120.286 12.1499 120.356 12.1156C120.709 11.9504 121.083 11.8308 121.471 11.7618C121.546 11.7471 121.596 11.7869 121.581 11.8465C121.518 12.0933 121.46 12.3451 121.404 12.6022ZM121.038 14.1849C121.025 14.2482 120.964 14.2766 120.902 14.2482C120.618 14.1118 120.315 13.9663 119.993 13.8192C119.923 13.7859 119.921 13.7316 119.99 13.698C120.343 13.535 120.718 13.4143 121.106 13.3435C121.182 13.3305 121.233 13.3703 121.217 13.4298C121.154 13.6748 121.095 13.9267 121.038 14.1849ZM119.286 11.1321C119.218 11.1008 119.218 11.0455 119.286 11.0143C119.639 10.8473 120.014 10.7271 120.401 10.6579C120.476 10.6447 120.526 10.6845 120.512 10.7442C120.449 10.9887 120.389 11.2419 120.335 11.4998C120.322 11.5624 120.26 11.5908 120.199 11.5613C119.914 11.4262 119.611 11.2812 119.286 11.1321ZM119.383 13.3522C119.369 13.4145 119.308 13.4437 119.247 13.4138C118.96 13.2776 118.658 13.1334 118.335 12.9845C118.267 12.9532 118.263 12.8974 118.333 12.8651C118.686 12.6997 119.061 12.5798 119.448 12.5113C119.525 12.4961 119.575 12.5361 119.561 12.5958C119.496 12.8424 119.438 13.0956 119.383 13.3522ZM117.402 11.5381C117.333 11.5053 117.331 11.4515 117.401 11.4179C117.753 11.252 118.128 11.1318 118.515 11.0613C118.592 11.0486 118.642 11.0874 118.627 11.1471C118.563 11.3931 118.504 11.6453 118.448 11.9032C118.434 11.9668 118.375 11.996 118.313 11.9658C118.028 11.8285 117.724 11.6851 117.402 11.5381ZM117.204 9.91539C117.559 9.75026 117.934 9.63138 118.322 9.56057C118.398 9.54532 118.448 9.58641 118.432 9.64611C118.368 9.89213 118.309 10.1436 118.254 10.4002C118.239 10.464 118.18 10.4938 118.118 10.4635C117.831 10.3268 117.53 10.1829 117.206 10.0345C117.137 10.0033 117.137 9.94924 117.204 9.91539ZM117.642 8.42534C117.996 8.2584 118.369 8.14081 118.756 8.07104C118.832 8.05657 118.883 8.09662 118.868 8.15554C118.804 8.40234 118.746 8.65405 118.69 8.91041C118.677 8.97372 118.616 9.00447 118.554 8.97372C118.269 8.8365 117.967 8.69255 117.643 8.54318C117.575 8.51191 117.573 8.45687 117.642 8.42534ZM118.801 7.12971C119.152 6.96354 119.527 6.84441 119.916 6.77463C119.993 6.76068 120.042 6.80047 120.026 6.86069C119.963 7.10567 119.904 7.35687 119.85 7.61529C119.836 7.67809 119.775 7.70755 119.713 7.67809C119.427 7.54242 119.124 7.3977 118.802 7.24833C118.732 7.21628 118.731 7.16253 118.801 7.12971ZM120.332 9.27655C120.269 9.52179 120.21 9.77273 120.154 10.0304C120.14 10.0934 120.081 10.1244 120.019 10.0934C119.733 9.95776 119.431 9.81304 119.108 9.66419C119.039 9.63369 119.037 9.57813 119.107 9.54428C119.46 9.37888 119.836 9.26026 120.222 9.19023C120.297 9.17705 120.348 9.2153 120.332 9.27655ZM121.038 7.84479C121.117 7.83135 121.166 7.87063 121.15 7.93162C121.088 8.17738 121.028 8.42883 120.972 8.68596C120.96 8.74876 120.901 8.77745 120.839 8.74876C120.552 8.61076 120.249 8.46863 119.927 8.319C119.858 8.28773 119.855 8.23243 119.925 8.19935C120.277 8.0337 120.652 7.91404 121.038 7.84479ZM120.313 6.13942C120.666 5.97429 121.039 5.85412 121.428 5.78409C121.504 5.77143 121.553 5.81122 121.538 5.87118C121.475 6.11694 121.415 6.36762 121.361 6.62578C121.348 6.68987 121.288 6.71727 121.227 6.68806C120.939 6.55213 120.638 6.40741 120.315 6.25908C120.245 6.22781 120.243 6.17173 120.313 6.13942ZM122.003 5.3668C122.356 5.20089 122.73 5.08201 123.117 5.01095C123.194 4.99828 123.244 5.03756 123.227 5.097C123.164 5.34199 123.106 5.59421 123.051 5.85109C123.037 5.91492 122.977 5.94387 122.915 5.91492C122.628 5.77847 122.327 5.63324 122.004 5.48568C121.935 5.45441 121.932 5.3991 122.003 5.3668ZM143.344 9.96399C143.858 9.96451 144.175 10.3485 144.232 10.5222C144.232 10.5222 143.459 10.6884 143.122 10.7574C142.902 10.8028 142.758 10.7114 142.736 10.5434C142.708 10.3565 142.915 9.96038 143.344 9.96399ZM145.253 10.0216C145.333 9.82489 145.499 9.69025 145.671 9.68999C145.978 9.68974 146.125 10.0164 146.124 10.1164L145.382 10.2774C145.174 10.3167 145.18 10.2063 145.253 10.0216ZM153.583 16.1176C153.265 15.9222 152.986 15.8982 152.695 15.8124C152.301 15.6964 152.175 15.2263 152.029 15.1718C151.734 15.0617 151.462 15.4992 151.284 15.4418C151.105 15.3865 151.033 14.8105 150.888 14.7578C150.603 14.6552 150.297 15.0945 150.117 15.0374C149.939 14.9821 149.843 14.414 149.698 14.3626C149.402 14.2569 149.098 14.7141 148.92 14.6572C148.741 14.6014 148.692 14.0114 148.546 13.9579C148.23 13.8419 147.94 14.3086 147.661 14.2657C147.484 14.2391 147.095 14.1753 146.585 13.8427C146.439 13.7478 146.136 13.5106 146.112 13.5015C146.06 13.4824 145.929 13.4509 145.961 13.707C146.036 14.3073 147.098 14.7386 148.319 15.0829C149.538 15.425 150.774 15.7573 151.511 16.0876C151.967 16.2923 152.162 16.5365 151.998 16.7743C151.871 16.959 151.558 16.9707 151.218 16.8138C150.853 16.6443 150.816 16.3649 150.586 16.3124C150.305 16.2478 149.948 16.7681 149.725 16.7177C149.439 16.6525 149.407 16.0553 149.154 15.9894C148.818 15.9018 148.445 16.4076 148.224 16.3613C148.001 16.3181 147.919 15.6775 147.709 15.625C147.356 15.5361 146.997 16.0657 146.775 16.0197C146.552 15.9752 146.429 15.3457 146.243 15.2728C145.891 15.134 145.421 15.6517 144.934 15.4007C143.359 14.3652 143.661 13.831 142.457 13.4837C141.835 13.3051 141.059 13.5222 140.605 13.569C139.538 13.6773 139.58 12.7792 139.58 12.7792C139.89 12.8493 140.324 13.0397 141.121 12.7521C141.982 12.4407 142.464 12.3862 143.587 12.7521C144.535 13.0627 145.1 12.7852 145.43 12.7022C145.593 12.6611 145.718 12.5743 146.025 12.7648C146.331 12.955 146.626 13.1643 146.777 13.0932C147.009 12.9826 146.926 12.3771 147.327 12.2484C147.51 12.1892 148.01 12.6759 148.228 12.5947C148.447 12.5128 148.38 11.8778 148.779 11.7494C148.963 11.691 149.463 12.1774 149.681 12.097C149.901 12.013 149.833 11.3796 150.232 11.2501C150.416 11.1917 150.917 11.6789 151.134 11.5982C151.353 11.515 151.286 10.8806 151.685 10.7503C151.868 10.6924 152.37 11.1803 152.587 11.0989V11.0984C152.806 11.0142 152.775 10.8537 152.951 10.4221C152.985 10.3374 153.049 10.2534 153.138 10.1818C153.382 9.98719 153.751 9.57112 153.534 9.10389C153.336 8.68188 152.929 8.69531 152.034 8.87466C151.281 9.0261 146.607 10.026 146.607 10.026C145.877 8.71263 145.384 9.57965 144.3 9.45251C143.615 9.37239 142.507 8.69195 140.753 10.2676C139.81 10.0061 138.978 10.2381 138.357 10.5772C137.305 10.1596 135.298 9.1579 131.485 9.1579C130.406 9.1579 127.834 9.36516 123.74 10.4144C122.692 10.6831 121.734 10.625 121.501 10.0198C121.259 9.38583 122.099 8.72193 123.683 7.98283C127.612 6.15162 130.235 6.58293 135.517 3.8604C138.349 2.40236 138.534 0.691315 138.531 0.277056C138.531 -0.00643817 138.235 -0.101798 138.064 0.130787C137.111 1.42499 136.866 1.31774 136.57 1.02882C136.174 0.643506 135.908 1.25598 135.481 1.56506C135.158 1.79919 135.093 1.51699 134.831 1.35289C134.384 1.07146 134.007 1.90282 133.624 2.06976C133.179 2.2641 133.098 2.04702 132.947 1.89352C132.84 1.78498 132.648 1.78808 132.51 1.91574C131.608 2.74917 131.477 2.65381 131.207 2.37626C131.008 2.17003 130.898 2.02635 130.316 2.60109C129.979 2.93343 129.416 3.32649 129.247 2.91224C129.076 2.4972 128.928 2.25506 128.102 2.98976C127.612 3.42392 127.279 3.45984 127.13 3.25439C126.981 3.04791 127.005 2.48325 126.231 3.07608C125.537 3.6074 125.189 3.9276 124.96 3.41384C124.739 2.9174 124.228 3.33502 123.841 3.69449C123.638 3.88366 123.3 4.33307 123.028 3.87591C122.757 3.42392 122.324 3.8909 121.767 4.46331C121.454 4.78428 121.244 4.64318 120.934 4.42946C120.577 4.1806 120.2 5.06933 119.682 5.6022C119.585 5.69033 119.444 5.75467 119.131 5.54302C118.729 5.27271 118.089 6.65167 117.907 6.98995C117.61 7.53575 117.283 6.84653 116.936 7.34012C116.129 8.4909 115.265 9.76701 115.02 12.0282C114.726 14.734 115.756 16.9376 116.803 17.7475C116.803 17.7475 116.675 18.0506 116.529 18.431C116.237 19.1934 116.117 20.1834 116.492 20.8773C116.854 21.5477 117.704 22.663 118.02 21.6099C118.173 21.0988 118.317 21.1257 118.824 21.4743C119.588 21.9986 119.401 21.0424 119.554 20.7595C119.662 20.561 119.795 20.484 120.425 20.8882C120.787 21.1176 120.903 20.806 121.011 20.3695C121.343 19.0213 120.689 18.6895 120.042 18.5628C119.571 18.4708 119.076 18.5473 119.076 18.5473C120.106 17.018 120.234 16.1832 119.077 15.409C119.25 15.3245 119.391 15.3707 119.539 15.4312C119.823 15.5483 120.061 15.7612 120.212 16.0197C120.372 16.2941 120.634 16.9066 120.103 17.9948C120.325 17.9948 121.179 18.0473 121.565 18.9003C122.07 19.0593 125.339 19.3118 126.766 19.0872C127.285 19.0058 127.52 18.5494 128.038 18.0801C128.602 17.5676 129.259 17.012 129.845 17.4286C128.847 17.8268 128.144 18.5825 128.144 19.5402C128.144 20.2597 128.448 20.5481 128.977 20.9758C129.455 21.3629 129.603 21.9764 129.778 22.4537C130.002 23.0608 130.471 23.0799 130.576 22.5036C130.72 21.7063 130.968 21.8547 131.284 22.1948C131.67 22.6075 131.97 22.5444 131.971 21.95C131.972 21.388 132.145 21.1101 132.791 21.7601C133.053 22.0239 133.368 22.0141 133.363 21.4399C133.357 20.7383 133.68 20.806 134.084 21.1063C134.225 21.2109 134.322 21.2861 134.398 21.2825C134.716 21.2657 134.925 20.6644 134.68 20.1886C134.559 19.9511 134.381 19.5955 132.732 19.265C132.192 19.1567 132.284 18.7918 132.284 18.7918C136.31 18.9817 139.722 18.4894 141.965 17.1619C144.723 17.809 148.757 17.8708 150.081 17.854C151.404 17.8385 152.416 17.7801 153.245 17.3932C154.118 16.9849 153.987 16.3644 153.583 16.1176Z" fill="#00552D"/>
<path fill-rule="evenodd" clip-rule="evenodd" d="M143.577 12.7493C142.453 12.3834 141.972 12.4379 141.11 12.7493C140.313 13.0369 139.879 12.8465 139.569 12.7764C139.569 12.7764 139.527 13.6745 140.595 13.5662C141.048 13.5194 141.824 13.3026 142.446 13.4809C143.65 13.8282 143.348 14.3624 144.924 15.3979C145.41 15.6491 145.88 15.1315 146.232 15.27C146.419 15.3429 146.542 15.9726 146.764 16.0171C146.986 16.0628 147.346 15.5333 147.699 15.6222C147.908 15.6747 147.991 16.3153 148.213 16.3585C148.435 16.405 148.808 15.899 149.143 15.9866C149.396 16.0525 149.428 16.65 149.715 16.7151C149.938 16.7652 150.294 16.245 150.576 16.3096C150.805 16.3621 150.842 16.6417 151.207 16.811C151.547 16.9678 151.86 16.9562 151.987 16.7714C152.151 16.5339 151.956 16.2895 151.5 16.0848C150.764 15.7545 149.528 15.4224 148.309 15.0803C147.087 14.7358 146.026 14.3048 145.951 13.7042C145.919 13.4514 146.046 13.4791 146.099 13.4979C145.63 13.1591 145.532 12.8387 145.556 12.6614L145.555 12.6612C145.555 12.6612 145.555 12.6612 145.555 12.6614H145.554L145.554 12.6612C145.509 12.6725 145.466 12.6878 145.419 12.6997C145.089 12.7824 144.525 13.0599 143.577 12.7493Z" fill="#E10041"/>
</svg>
